<svg xmlns="http://www.w3.org/2000/svg" width="20" height="20" viewBox="0 0 20 20">
  <path id="codepen-brands" d="M19.62,6.239,10.48.146a.868.868,0,0,0-.96,0L.379,6.239A.874.874,0,0,0,0,6.953v6.094a.874.874,0,0,0,.379.714L9.52,19.856a.868.868,0,0,0,.96,0l9.141-6.095A.874.874,0,0,0,20,13.047V6.953a.874.874,0,0,0-.38-.714ZM10.859,2.467l6.73,4.487-3,2.009L10.859,6.474Zm-1.719,0V6.474L5.413,8.962l-3-2.009ZM1.719,8.561,3.873,10,1.719,11.44V8.561Zm7.422,8.973-6.73-4.487,3-2.009,3.728,2.489Zm.859-5.5L6.964,10,10,7.969,13.036,10Zm.859,5.5V13.527l3.728-2.489,3,2.009Zm7.422-6.094L16.127,10l2.154-1.44V11.44Z" transform="translate(0 -0.001)" fill="#193566"/>
</svg>
