<svg xmlns="http://www.w3.org/2000/svg" width="20" height="15" viewBox="0 0 20 15">
  <path id="envelope-solid" d="M19.621,7.453A.235.235,0,0,1,20,7.637v7.988A1.875,1.875,0,0,1,18.125,17.5H1.875A1.875,1.875,0,0,1,0,15.625V7.641a.234.234,0,0,1,.379-.184C1.254,8.137,2.414,9,6.4,11.895c.824.6,2.215,1.867,3.6,1.859,1.395.012,2.813-1.281,3.605-1.859C17.59,9,18.746,8.133,19.621,7.453ZM10,12.5c.906.016,2.211-1.141,2.867-1.617,5.184-3.762,5.578-4.09,6.773-5.027A.935.935,0,0,0,20,5.117V4.375A1.875,1.875,0,0,0,18.125,2.5H1.875A1.875,1.875,0,0,0,0,4.375v.742a.94.94,0,0,0,.359.738c1.2.934,1.59,1.266,6.773,5.027.656.477,1.961,1.633,2.867,1.617Z" transform="translate(0 -2.5)" fill="#193566"/>
</svg>
