<svg xmlns="http://www.w3.org/2000/svg" width="19.996" height="20" viewBox="0 0 19.996 20">
  <path id="globe-solid" d="M13.569,14.129C12.984,10.528,11.6,8,10,8s-2.984,2.528-3.569,6.129ZM6.129,18a25.274,25.274,0,0,0,.133,2.581h7.472A25.274,25.274,0,0,0,13.867,18a25.274,25.274,0,0,0-.133-2.581H6.262A25.274,25.274,0,0,0,6.129,18Zm13.093-3.871a10.021,10.021,0,0,0-6.371-5.71,13.609,13.609,0,0,1,2.016,5.71ZM7.145,8.419a10.014,10.014,0,0,0-6.367,5.71H5.133a13.554,13.554,0,0,1,2.012-5.71Zm12.508,7H15.028c.085.847.133,1.714.133,2.581s-.048,1.734-.133,2.581h4.621A9.914,9.914,0,0,0,20,18a10.087,10.087,0,0,0-.343-2.581ZM4.839,18c0-.867.048-1.734.133-2.581H.347a9.776,9.776,0,0,0,0,5.161H4.968C4.887,19.734,4.839,18.867,4.839,18Zm1.593,3.871C7.016,25.472,8.4,28,10,28s2.984-2.528,3.569-6.129Zm6.423,5.71a10.031,10.031,0,0,0,6.371-5.71H14.871A13.609,13.609,0,0,1,12.855,27.581ZM.778,21.871a10.021,10.021,0,0,0,6.371,5.71,13.609,13.609,0,0,1-2.016-5.71H.778Z" transform="translate(0 -8)" fill="#ecf0f3"/>
</svg>
