<svg xmlns="http://www.w3.org/2000/svg" width="20" height="16.061" viewBox="0 0 20 16.061">
  <path id="angle-double-right-solid" d="M34.763,104.834l-6.824,6.824a1.2,1.2,0,0,1-1.7,0L25.1,110.523a1.2,1.2,0,0,1,0-1.7l4.837-4.837L25.1,99.149a1.2,1.2,0,0,1,0-1.7L26.233,96.3a1.2,1.2,0,0,1,1.7,0l6.824,6.824A1.2,1.2,0,0,1,34.763,104.834Zm9.634-1.706L37.572,96.3a1.2,1.2,0,0,0-1.7,0l-1.134,1.134a1.2,1.2,0,0,0,0,1.7l4.837,4.837-4.837,4.837a1.2,1.2,0,0,0,0,1.7l1.134,1.134a1.2,1.2,0,0,0,1.7,0l6.824-6.824A1.193,1.193,0,0,0,44.4,103.128Z" transform="translate(-24.75 -95.95)" fill="#193566"/>
</svg>
