<svg xmlns="http://www.w3.org/2000/svg" xmlns:xlink="http://www.w3.org/1999/xlink" width="10" height="10" viewBox="0 0 10 10">
  <defs>
    <clipPath id="clip-path">
      <rect id="Rectangle_9" data-name="Rectangle 9" width="10" height="10" transform="translate(65 475)" fill="#fff" stroke="#707070" stroke-width="1"/>
    </clipPath>
  </defs>
  <g id="Groupe_de_masques_5" data-name="Groupe de masques 5" transform="translate(-65 -475)" clip-path="url(#clip-path)">
    <path id="plus-solid" d="M9.286,4.643H6.071V1.429A.714.714,0,0,0,5.357.714H4.643a.714.714,0,0,0-.714.714V4.643H.714A.714.714,0,0,0,0,5.357v.714a.714.714,0,0,0,.714.714H3.929V10a.714.714,0,0,0,.714.714h.714A.714.714,0,0,0,6.071,10V6.786H9.286A.714.714,0,0,0,10,6.071V5.357A.714.714,0,0,0,9.286,4.643Z" transform="translate(65 474.286)" fill="#193566"/>
  </g>
</svg>
